<svg xmlns="http://www.w3.org/2000/svg" viewBox="0 0 128 128" role="img" aria-label="Oliver Michael Spielmann">
  <rect width="128" height="128" rx="22" fill="#072366"/>
  <rect x="22" y="86" width="84" height="6" rx="1" fill="#C49A2A"/>
  <rect x="20" y="92" width="4" height="3" fill="#C49A2A"/>
  <rect x="104" y="92" width="4" height="3" fill="#C49A2A"/>
  <rect x="32" y="40" width="30" height="42" rx="4" fill="#FFFFFF"/>
  <rect x="36" y="46" width="22" height="14" rx="1" fill="#072366"/>
  <rect x="38" y="64" width="6" height="6" fill="#072366"/>
  <rect x="50" y="64" width="6" height="6" fill="#072366"/>
  <path d="M62 52 L72 36 L72 82 L62 82 Z" fill="#C49A2A"/>
  <rect x="72" y="40" width="30" height="42" rx="4" fill="#FFFFFF"/>
  <rect x="76" y="46" width="22" height="14" rx="1" fill="#072366"/>
  <rect x="78" y="64" width="6" height="6" fill="#072366"/>
  <rect x="90" y="64" width="6" height="6" fill="#072366"/>
  <circle cx="40" cy="98" r="4" fill="#1A1A2E"/>
  <circle cx="54" cy="98" r="4" fill="#1A1A2E"/>
  <circle cx="80" cy="98" r="4" fill="#1A1A2E"/>
  <circle cx="94" cy="98" r="4" fill="#1A1A2E"/>
  <text x="64" y="22" font-family="Helvetica, Arial, sans-serif" font-size="14" font-weight="800" fill="#C49A2A" text-anchor="middle" letter-spacing="2">OS</text>
</svg>
