<svg xmlns="http://www.w3.org/2000/svg" viewBox="0 0 128 128" role="img" aria-label="Oliver Michael Spielmann">
  <rect width="128" height="128" rx="22" fill="#072366"/>
  <ellipse cx="64" cy="106" rx="40" ry="6" fill="#0d2e7a"/>
  <ellipse cx="64" cy="100" rx="38" ry="7" fill="#f7f2e8" stroke="#C49A2A" stroke-width="1.5"/>
  <path d="M30,40 L98,40 Q96,80 80,92 Q72,98 64,98 Q56,98 48,92 Q32,80 30,40 Z"
        fill="#FFFFFF" stroke="#072366" stroke-width="2.5" stroke-linejoin="round"/>
  <path d="M30,40 L98,40" stroke="#C49A2A" stroke-width="2.5" stroke-linecap="round"/>
  <path d="M98,46 q14,-1 14,12 q0,12 -14,16" fill="none" stroke="#072366" stroke-width="2.5" stroke-linecap="round"/>
  <g clip-path="inset(0 round 0)">
    <path d="M30,52 L98,52 Q97,80 80,90 Q72,94 64,94 Q56,94 48,90 Q31,80 30,52 Z" fill="#3b1d0a"/>
    <path d="M30,52 L98,52 Q98,58 92,62 Q72,72 64,72 Q56,72 36,62 Q30,58 30,52 Z" fill="#caa14a"/>
  </g>
  <text x="64" y="78" font-family="Helvetica, Arial, sans-serif" font-size="13" font-weight="800"
        fill="#FFFFFF" text-anchor="middle" letter-spacing="2">SC</text>
  <ellipse cx="56" cy="22" rx="3" ry="6" fill="#FFFFFF" opacity="0.7"/>
  <ellipse cx="68" cy="14" rx="4" ry="7" fill="#FFFFFF" opacity="0.55"/>
  <ellipse cx="78" cy="22" rx="3" ry="6" fill="#FFFFFF" opacity="0.5"/>
</svg>
