<svg xmlns="http://www.w3.org/2000/svg" viewBox="0 0 1200 630" role="img" aria-label="Oliver Michael Spielmann - Chairman, Founder, Angel Investor">
  <defs>
    <linearGradient id="bg" x1="0" x2="0" y1="0" y2="1">
      <stop offset="0" stop-color="#0a2c80"/>
      <stop offset="1" stop-color="#051a4d"/>
    </linearGradient>
    <linearGradient id="rail" x1="0" x2="1" y1="0" y2="0">
      <stop offset="0" stop-color="#C49A2A" stop-opacity="0"/>
      <stop offset=".5" stop-color="#C49A2A" stop-opacity=".75"/>
      <stop offset="1" stop-color="#C49A2A" stop-opacity="0"/>
    </linearGradient>
  </defs>
  <rect width="1200" height="630" fill="url(#bg)"/>
  <rect x="0" y="498" width="1200" height="2" fill="url(#rail)"/>
  <rect x="0" y="514" width="1200" height="2" fill="url(#rail)" opacity=".5"/>
  <g transform="translate(820 360)">
    <rect x="0" y="60" width="280" height="6" fill="#C49A2A"/>
    <rect x="-4" y="66" width="6" height="6" fill="#C49A2A"/>
    <rect x="278" y="66" width="6" height="6" fill="#C49A2A"/>
    <rect x="10" y="0" width="80" height="60" rx="6" fill="#FFFFFF"/>
    <rect x="16" y="8" width="68" height="22" rx="1" fill="#072366"/>
    <rect x="20" y="36" width="14" height="12" fill="#072366"/>
    <rect x="42" y="36" width="14" height="12" fill="#072366"/>
    <path d="M90 18 L120 -6 L120 60 L90 60 Z" fill="#C49A2A"/>
    <rect x="120" y="0" width="80" height="60" rx="6" fill="#FFFFFF"/>
    <rect x="126" y="8" width="68" height="22" rx="1" fill="#072366"/>
    <rect x="130" y="36" width="14" height="12" fill="#072366"/>
    <rect x="152" y="36" width="14" height="12" fill="#072366"/>
    <path d="M200 18 L230 -6 L230 60 L200 60 Z" fill="#C49A2A"/>
    <rect x="230" y="6" width="50" height="54" rx="6" fill="#0e3aaa"/>
    <rect x="236" y="14" width="38" height="20" rx="1" fill="#FFFFFF"/>
    <rect x="244" y="42" width="22" height="12" rx="2" fill="#FFFFFF"/>
    <circle cx="32" cy="74" r="6" fill="#1A1A2E"/>
    <circle cx="64" cy="74" r="6" fill="#1A1A2E"/>
    <circle cx="142" cy="74" r="6" fill="#1A1A2E"/>
    <circle cx="174" cy="74" r="6" fill="#1A1A2E"/>
    <circle cx="248" cy="74" r="6" fill="#1A1A2E"/>
  </g>
  <text x="80" y="180" fill="#C49A2A" font-family="Helvetica, Arial, sans-serif" font-size="22" font-weight="700" letter-spacing="6">ZUERICH - CHAIRMAN - FOUNDER - ANGEL INVESTOR</text>
  <text x="80" y="290" fill="#FFFFFF" font-family="Helvetica, Arial, sans-serif" font-size="84" font-weight="800" letter-spacing="-3">Oliver Michael</text>
  <text x="80" y="372" fill="#FFFFFF" font-family="Helvetica, Arial, sans-serif" font-size="84" font-weight="800" letter-spacing="-3">Spielmann</text>
  <rect x="80" y="396" width="120" height="3" fill="#C49A2A"/>
  <text x="80" y="448" fill="#FFFFFF" font-family="Helvetica, Arial, sans-serif" font-size="32" font-weight="600" opacity=".88">«Nicht einfacher, sondern besser!»</text>
  <text x="80" y="556" fill="#FFFFFF" font-family="Helvetica, Arial, sans-serif" font-size="20" font-weight="600" opacity=".62" letter-spacing="2">Spielmann Consulting - Black Coffee Group - Board Member</text>
</svg>
